<?xml version="1.0" encoding="UTF-8" standalone="no"?>
<svg xmlns:dc="http://purl.org/dc/elements/1.1/" xmlns:cc="http://creativecommons.org/ns#" xmlns:rdf="http://www.w3.org/1999/02/22-rdf-syntax-ns#" xmlns:svg="http://www.w3.org/2000/svg" xmlns="http://www.w3.org/2000/svg" xmlns:sodipodi="http://sodipodi.sourceforge.net/DTD/sodipodi-0.dtd" xmlns:inkscape="http://www.inkscape.org/namespaces/inkscape" inkscape:version="1.0beta1 (fe3e306, 2019-09-17)" sodipodi:docname="cern.svg" viewBox="0 0 133.33333 133.33333" height="133.33333" width="133.33333" xml:space="preserve" id="svg833" version="1.1">
  <metadata id="metadata839">
    <rdf:RDF>
      <cc:Work rdf:about="">
        <dc:format>image/svg+xml</dc:format>
        <dc:type rdf:resource="http://purl.org/dc/dcmitype/StillImage"/>
        <dc:title/>
      </cc:Work>
    </rdf:RDF>
  </metadata>
  <defs id="defs837">
    <clipPath id="clipPath851" clipPathUnits="userSpaceOnUse">
      <path inkscape:connector-curvature="0" id="path849" d="M 0,100 H 100 V 0 H 0 Z"/>
    </clipPath>
  </defs>
  <sodipodi:namedview inkscape:current-layer="g841" inkscape:window-maximized="0" inkscape:window-y="358" inkscape:window-x="2889" inkscape:cy="87.339285" inkscape:cx="106.86166" inkscape:zoom="5.6" showgrid="false" id="namedview835" inkscape:window-height="907" inkscape:window-width="1600" inkscape:pageshadow="2" inkscape:pageopacity="0" guidetolerance="10" gridtolerance="10" objecttolerance="10" borderopacity="1" inkscape:document-rotation="0" bordercolor="#666666" pagecolor="#ffffff"/>
  <g transform="matrix(1.3333333,0,0,-1.3333333,0,133.33333)" inkscape:label="LogoCERN-WEB" inkscape:groupmode="layer" id="g841">
    <path inkscape:connector-curvature="0" id="path843" style="fill:#ffffff;fill-opacity:1;fill-rule:nonzero;stroke:none" d="M 0,0 H 100 V 100 H 0 Z"/>
    <g style="stroke:none" id="g845">
      <g style="stroke:none" clip-path="url(#clipPath851)" id="g847">
        <g style="stroke:none" transform="translate(48.5259,62.0493)" id="g853">
          <path inkscape:connector-curvature="0" id="path855" style="fill:#0033a0;fill-opacity:1;fill-rule:nonzero;stroke:none" d="m 0,0 c 0,1.866 -1.633,2.46 -2.91,2.46 -0.863,0 -1.426,-0.057 -1.82,-0.095 -0.057,-1.37 -0.113,-2.63 -0.113,-3.982 v -1.032 c 0.187,-0.025 1.066,-0.02 1.258,-0.017 C -2.035,-2.633 0,-2.142 0,0 m 32.38,6.749 c 3.489,-4.278 6.314,-11.047 6.726,-16.714 h 0.056 l 2.906,30.023 1.64,0.001 c 0,0 -1.86,-19.408 -2.943,-29.052 -1.356,-12.08 -3.079,-17.091 -6.375,-22.367 l -0.504,2.296 c 2.568,4.51 3.301,8.447 3.635,10.521 1.043,6.457 -0.449,15.272 -4.947,22.15 -5.042,7.708 -14.055,13.379 -25.118,13.379 -9.088,0 -16.984,-3.996 -22.496,-10.228 l -1.336,1.059 c 5.834,6.62 14.314,10.843 23.833,10.843 9.98,0 18.867,-4.484 24.923,-11.911 M 16.232,-9.882 15.618,-9.876 c -0.751,1.019 -8.629,9.235 -9.311,9.961 -0.019,-0.694 -0.02,-2.138 -0.02,-3.543 0,-1.865 0.142,-4.711 0.224,-6.249 -0.191,0.035 -0.472,0.069 -0.8,0.069 -0.332,0 -0.603,-0.03 -0.822,-0.069 0.153,1.984 0.196,5.206 0.196,8.233 0,2.365 -0.035,3.662 -0.063,4.855 L 5.638,3.375 c 0.796,-0.864 8.628,-8.97 9.31,-9.696 0.019,0.694 0.02,1.919 0.02,3.324 0,1.865 -0.142,4.711 -0.224,6.248 0.191,-0.033 0.472,-0.067 0.8,-0.067 0.332,0 0.603,0.029 0.823,0.067 -0.155,-1.984 -0.198,-5.204 -0.198,-8.232 0,-2.364 0.036,-3.707 0.063,-4.901 M 2.023,-9.645 c -0.171,0 -0.819,-0.005 -1.176,-0.062 -0.742,1.131 -3.119,4.693 -4.734,6.355 -0.049,0 -0.956,-0.001 -0.956,-0.001 v -1.492 c 0,-1.614 0.075,-3.247 0.151,-4.862 -0.32,0.057 -0.897,0.062 -1.016,0.062 -0.118,0 -0.695,-0.005 -1.015,-0.062 0.076,1.615 0.151,3.248 0.151,4.862 v 3.228 c 0,1.615 -0.075,3.248 -0.151,4.862 0.714,-0.056 1.618,-0.093 2.331,-0.093 0.713,0 1.426,0.093 2.14,0.093 2.121,0 4.064,-0.626 4.064,-2.989 0,-2.499 -2.49,-3.398 -3.916,-3.585 0.919,-1.145 4.214,-5.157 5.303,-6.378 -0.375,0.057 -1.005,0.062 -1.176,0.062 M -9.002,-9.707 v 0 c -0.675,0.035 -1.611,0.062 -2.499,0.078 -0.512,0.009 -1.01,0.015 -1.402,0.016 h -0.166 c -1.145,0 -2.903,-0.037 -4.048,-0.094 0.075,1.634 0.152,3.267 0.152,4.881 v 3.228 c 0,1.615 -0.077,3.248 -0.152,4.843 1.127,-0.056 2.865,-0.093 3.991,-0.093 1.126,0 3.228,0.05 3.877,0.093 -0.027,-0.175 -0.044,-0.384 -0.044,-0.64 0,-0.256 0.025,-0.52 0.044,-0.648 -1.236,0.093 -3.445,0.245 -5.885,0.245 -0.019,-0.807 -0.056,-4.231 -0.056,-4.701 2.214,0 3.633,0.095 4.741,0.188 -0.037,-0.188 -0.056,-0.524 -0.056,-0.712 0,-0.187 0.019,-0.465 0.056,-0.654 -1.295,0.133 -4.194,0.17 -4.741,0.17 -0.034,-0.628 -0.005,-4.69 0.018,-5.033 1.372,0.02 4.888,0.126 6.17,0.245 -0.02,-0.143 -0.045,-0.435 -0.045,-0.721 0,-0.286 0.017,-0.494 0.045,-0.691 m -12.002,-18.662 c -2.239,4.551 -3.253,9.171 -3.387,13.589 0.568,0 1.228,-0.023 1.796,-0.023 0.197,-4.229 1.156,-9.487 4.462,-15.2 -1.194,0.438 -2.092,1.018 -2.871,1.634 m -9.938,25.144 c 0,4.036 3.052,6.721 7.201,6.721 1.614,0 3.462,-0.497 4.493,-0.94 -0.215,-0.477 -0.392,-1.108 -0.468,-1.502 l -0.112,-0.037 c -0.798,0.883 -2.081,1.648 -3.979,1.648 -2.41,0 -5.182,-1.95 -5.182,-5.841 0,-3.788 2.825,-5.801 5.351,-5.801 2.27,0 3.356,1.059 4.331,1.883 l 0.075,-0.075 -0.276,-1.472 c -0.447,-0.338 -1.998,-1.303 -4.332,-1.303 -4.224,0 -7.102,2.661 -7.102,6.719 M 2.673,26.393 c 4.931,-1.384 9.556,-3.919 13.231,-7.347 -1.06,0.284 -2.142,0.513 -3.241,0.684 -5.167,4.085 -11.894,6.521 -18.923,6.521 -16.605,0 -30.195,-13.542 -30.195,-30.186 0,-16.644 13.54,-30.185 30.185,-30.185 16.644,0 30.186,13.541 30.186,30.185 0,6.439 -2.426,12.872 -5.757,17.415 0.796,-0.239 1.765,-0.649 2.88,-1.308 2.255,-3.418 4.346,-9.001 6.137,-17.563 1.88,-8.983 11.547,-52.009 12.592,-56.658 h 11.706 v 88.186 l -48.801,0.3 z m -16.094,-62.804 c 2.394,-2.074 6.189,-4.682 10.879,-6.367 -0.393,-0.418 -0.819,-0.871 -1.271,-1.352 -4.685,1.854 -9.268,4.73 -12.83,8.605 1.002,-0.338 2.106,-0.644 3.222,-0.886 m -35.105,74.362 v -100 h 29.843 l 29.523,31.394 -0.042,0.038 c -4.746,-3.348 -10.771,-5.167 -17.266,-5.167 -12.037,0 -22.645,7.142 -27.245,16.03 l -0.047,-0.032 6.263,-21.131 h -1.695 c 0,0 -3.107,10.708 -5.761,20.042 -2.008,7.065 -3.244,12.299 -3.229,16.944 0.055,15.975 12.619,30.624 29.326,31.705 0.459,0.031 1.879,0.179 3.996,0.181 12.869,0.007 52.523,-0.297 56.334,-0.326 v 10.322 z m 78.933,-71.986 0.45,-2.048 c -5.398,-5.83 -13.663,-10.199 -23.283,-10.199 -2.061,0 -4.213,0.199 -6.604,0.707 0.486,0.517 0.95,1.012 1.389,1.478 1.536,-0.273 3.302,-0.453 5.118,-0.453 9.357,-0.006 17.532,4.205 22.93,10.515 m -5.015,29.211 c 0.151,-8.819 -3.889,-14.805 -5.161,-16.882 -1.109,-1.81 -3.758,-5.3 -8.858,-10.715 -6.433,-6.832 -26.54,-28.204 -27.88,-29.628 h 54.525 l -12.571,57.23 z"/>
        </g>
      </g>
    </g>
  </g>
</svg>