<?xml version="1.0" encoding="UTF-8" standalone="no"?>
<svg xmlns:dc="http://purl.org/dc/elements/1.1/" xmlns:cc="http://creativecommons.org/ns#" xmlns:rdf="http://www.w3.org/1999/02/22-rdf-syntax-ns#" xmlns:svg="http://www.w3.org/2000/svg" xmlns="http://www.w3.org/2000/svg" viewBox="0 0 1024.1973 600" height="600" width="1024.1973" xml:space="preserve" id="svg833" version="1.1">
  <metadata id="metadata839">
    <rdf:RDF>
      <cc:Work rdf:about="">
        <dc:format>image/svg+xml</dc:format>
        <dc:type rdf:resource="http://purl.org/dc/dcmitype/StillImage"/>
        <dc:title/>
      </cc:Work>
    </rdf:RDF>
  </metadata>
  <defs id="defs837">
    <clipPath id="clipPath849" clipPathUnits="userSpaceOnUse">
      <path id="path847" d="M 0,612.288 H 858.898 V 0 H 0 Z"/>
    </clipPath>
  </defs>
  <g transform="matrix(1.3333333,0,0,-1.3333333,0,816.384)" id="g841">
    <g transform="matrix(2.6581252,0,0,2.6581252,-750.34155,-431.79785)" id="g843">
      <g clip-path="url(#clipPath849)" id="g845">
        <g transform="translate(504.4429,254.5122)" id="g851">
          <path id="path853" style="fill:#00a4e4;fill-opacity:1;fill-rule:nonzero;stroke:none" d="m 0,0 c -12.16,0 -23.593,3.942 -33.062,11.4 -2.168,1.709 -2.542,4.853 -0.834,7.022 1.709,2.169 4.852,2.543 7.022,0.834 C -19.187,13.2 -9.894,10 0,10 24.059,10 43.632,29.573 43.632,53.632 43.632,77.69 24.059,97.264 0,97.264 c -9.797,0 -19.051,-3.17 -26.763,-9.168 -2.179,-1.697 -5.32,-1.303 -7.015,0.877 -1.697,2.179 -1.303,5.32 0.877,7.015 9.482,7.377 20.86,11.276 32.901,11.276 29.572,0 53.632,-24.06 53.632,-53.632 C 53.632,24.06 29.572,0 0,0"/>
        </g>
        <g transform="translate(423.1955,327.0017)" id="g855">
          <path id="path857" style="fill:#00a4e4;fill-opacity:1;fill-rule:nonzero;stroke:none" d="m 0,0 c 0,2.818 2.155,5.057 4.975,5.057 2.818,0 5.056,-2.239 5.056,-5.057 v -38.301 c 0,-2.819 -2.238,-4.975 -5.056,-4.975 -2.737,0 -4.975,2.156 -4.975,4.975 z"/>
        </g>
        <g transform="translate(295.4707,326.9435)" id="g859">
          <path id="path861" style="fill:#00a4e4;fill-opacity:1;fill-rule:nonzero;stroke:none" d="m 0,0 c 0,2.818 2.155,5.057 4.975,5.057 2.818,0 5.056,-2.239 5.056,-5.057 v -38.301 c 0,-2.819 -2.238,-4.975 -5.056,-4.975 -2.737,0 -4.975,2.156 -4.975,4.975 z"/>
        </g>
        <g transform="translate(504.3641,332.059)" id="g863">
          <path id="path865" style="fill:#005272;fill-opacity:1;fill-rule:nonzero;stroke:none" d="m 0,0 c -6.64,0 -12.48,-2.07 -16.76,-5.91 -4.62,-4.13 -7.42,-10.31 -7.44,-18.19 v -10e-4 0 c 0,-7.423 -6.37,-14.301 -14.2,-14.301 -3,0 -5.78,0.93 -8.08,2.53 -3.7,2.56 -6.12,6.84 -6.12,11.67 0,7.83 6.37,14.2 14.2,14.2 2.33,0 4.54,-0.54 6.58,-1.61 2.45,-1.29 5.47,-0.35 6.75,2.1 0.74,1.4 0.74,2.99 0.16,4.33 h -0.01 c -0.43,1 -1.21,1.87 -2.25,2.42 -3.44,1.81 -7.32,2.76 -11.23,2.76 -13.34,0 -24.2,-10.86 -24.2,-24.2 0,-7.72 3.64,-14.62 9.3,-19.05 4.11,-3.23 9.28,-5.15 14.9,-5.15 7.82,0 14.768,3.739 19.2,9.5 3.12,4.057 4.975,8.765 4.996,14.702 h 0.004 v 0.1 c 0.02,2.93 1.03,5.91 2.84,8.37 2.45,3.34 6.4,5.73 11.36,5.73 7.83,0 14.2,-6.37 14.2,-14.2 0,-7.83 -6.37,-14.2 -14.2,-14.2 -4.64,0 -8.78,2.24 -11.37,5.7 -1.08,-3.43 -2.79,-6.57 -4.99,-9.3 4.3,-3.98 10.05,-6.4 16.36,-6.4 13.34,0 24.2,10.86 24.2,24.2 C 24.2,-10.86 13.34,0 0,0"/>
        </g>
        <g transform="translate(389.4583,293.6339)" id="g867">
          <path id="path869" style="fill:#00a4e4;fill-opacity:1;fill-rule:nonzero;stroke:none" d="m 0,0 c -7.83,0 -14.2,6.37 -14.2,14.2 0,7.83 6.37,14.2 14.2,14.2 7.621,0 13.842,-6.039 14.169,-13.582 V 14.62 c 0,-0.071 0.018,-0.136 0.02,-0.206 C 14.19,14.342 14.2,14.272 14.2,14.2 14.2,6.37 7.83,0 0,0 m 24.2,48.488 c 0,2.818 -2.238,5.057 -5.056,5.057 -2.82,0 -4.975,-2.239 -4.975,-5.057 V 33.801 C 10.183,36.69 5.289,38.4 0,38.4 -13.344,38.4 -24.2,27.544 -24.2,14.2 -24.2,0.856 -13.344,-10 0,-10 c 13.344,0 24.2,10.856 24.2,24.2 0,0.113 -0.007,0.223 -0.008,0.335 0,0.029 0.008,0.056 0.008,0.085 z"/>
        </g>
        <g transform="translate(356.661,312.7424)" id="g871">
          <path id="path873" style="fill:#00a4e4;fill-opacity:1;fill-rule:nonzero;stroke:none" d="m 0,0 c -0.76,10.58 -9.42,18.96 -20.11,19.3 -0.01,0.01 -0.03,0.01 -0.05,0 -0.2,0.02 -0.41,0.02 -0.63,0.02 -0.2,0 -0.4,0 -0.59,-0.02 -10.74,-0.29 -19.46,-8.71 -20.19,-19.35 -0.03,-0.23 -0.06,-0.486 -0.05,-0.726 V -24.05 c 0,-2.82 2.24,-4.97 4.98,-4.97 2.82,0 5.05,2.15 5.05,4.97 v 23.3 c 0,0.04 0,0.07 -0.01,0.11 0.45,5.57 5.13,9.96 10.81,9.96 5.71,0 10.41,-4.42 10.82,-10.03 0,-0.01 0.01,-0.02 0,-0.04 v -23.3 c 0,-2.82 2.23,-4.97 4.97,-4.97 2.82,0 5.06,2.15 5.06,4.97 v 23.3 C 0.06,-0.49 0.04,-0.24 0,0"/>
        </g>
      </g>
    </g>
  </g>
</svg>