<?xml version="1.0" encoding="UTF-8" standalone="no"?>
<svg xmlns:dc="http://purl.org/dc/elements/1.1/" xmlns:cc="http://creativecommons.org/ns#" xmlns:rdf="http://www.w3.org/1999/02/22-rdf-syntax-ns#" xmlns:svg="http://www.w3.org/2000/svg" xmlns="http://www.w3.org/2000/svg" xmlns:sodipodi="http://sodipodi.sourceforge.net/DTD/sodipodi-0.dtd" xmlns:inkscape="http://www.inkscape.org/namespaces/inkscape" inkscape:export-ydpi="52.737835" inkscape:export-xdpi="52.737835" inkscape:export-filename="/home/rafael/workspace/logo-osi/5/png/logo396x412.png" sodipodi:docname="opensource.svg" inkscape:version="1.0beta1 (fe3e306, 2019-09-17)" version="1.1" id="svg3290" height="744.36218" width="744.09448">
  <defs id="defs3292"/>
  <sodipodi:namedview inkscape:document-rotation="0" inkscape:guide-bbox="true" showguides="true" inkscape:window-maximized="0" inkscape:window-y="23" inkscape:window-x="0" inkscape:window-height="907" inkscape:window-width="1600" showgrid="false" inkscape:current-layer="g879" inkscape:document-units="px" inkscape:cy="560" inkscape:cx="400" inkscape:zoom="0.35" inkscape:pageshadow="2" inkscape:pageopacity="0.0" borderopacity="1.0" bordercolor="#666666" pagecolor="#ffffff" id="base">
    <sodipodi:guide id="guide3004" position="389.91888,215.16249" orientation="1,0"/>
  </sodipodi:namedview>
  <metadata id="metadata3295">
    <rdf:RDF>
      <cc:Work rdf:about="">
        <dc:format>image/svg+xml</dc:format>
        <dc:type rdf:resource="http://purl.org/dc/dcmitype/StillImage"/>
        <dc:title/>
      </cc:Work>
    </rdf:RDF>
  </metadata>
  <g id="layer1" inkscape:groupmode="layer" inkscape:label="Layer 1">
    <g transform="translate(-13.252951,-24.079094)" id="g879">
      <path style="text-anchor:middle;opacity:1;fill:#3fa652;stroke:#21552a;stroke-width:23.3073;stroke-linejoin:round;stop-opacity:1" inkscape:connector-curvature="0" d="m 382.50248,399.47692 m 34.80559,90.6655 a 97.113838,97.113838 0 1 0 -69.61119,0 L 282.281,660.59662 a 279.68785,279.68785 0 1 1 200.44296,0 z" id="path3773" inkscape:export-filename="/home/rafael/workspace/logo-osi/3/png/logo396x412.png" inkscape:export-xdpi="48.18" inkscape:export-ydpi="48.18"/>
      <path id="path3015" style="opacity:1;fill:none;stroke:#000000;stroke-width:7.138;stroke-miterlimit:4;stroke-dasharray:none;stroke-opacity:1;stop-opacity:1" d="m 667.78575,647.50499 a 25.266013,25.221414 0 0 1 -25.26601,25.22141 25.266013,25.221414 0 0 1 -25.26601,-25.22141 25.266013,25.221414 0 0 1 25.26601,-25.22142 25.266013,25.221414 0 0 1 25.26601,25.22142" inkscape:connector-curvature="0"/>
      <path inkscape:connector-curvature="0" id="path900" style="font-style:normal;font-variant:normal;font-weight:bold;font-stretch:normal;font-size:12.6552px;line-height:1.25;font-family:OpenSymbol;-inkscape-font-specification:'OpenSymbol Bold';letter-spacing:0px;word-spacing:0px;opacity:1;fill:#000000;fill-opacity:1;stroke:none;stroke-width:3.16076;stop-opacity:1" d="m 647.57281,640.40775 q 0,-1.09375 -0.44924,-1.87503 -0.44921,-0.78124 -1.54296,-1.23045 -0.76171,-0.3126 -1.77736,-0.3711 -1.01561,-0.0781 -2.36326,-0.0781 h -2.71484 v 7.83201 h 2.30467 q 1.79689,0 3.0078,-0.17574 1.21095,-0.17574 2.03127,-0.80078 0.78124,-0.60547 1.13281,-1.32812 0.37111,-0.74221 0.37111,-1.97266 z m 11.69922,20.17578 h -9.16016 l -7.9297,-10.66408 h -3.45702 v 10.66408 h -7.46097 v -29.08204 h 12.57814 q 2.57814,0 4.4336,0.29301 1.85549,0.293 3.47658,1.26951 1.64062,0.97658 2.59763,2.53907 0.97658,1.54296 0.97658,3.88672 0,3.22265 -1.50392,5.25391 -1.48435,2.03126 -4.25779,3.37891 z"/>
    </g>
  </g>
</svg>